<?xml version="1.0" standalone="no"?>
<!DOCTYPE svg PUBLIC "-//W3C//DTD SVG 20010904//EN"
 "http://www.w3.org/TR/2001/REC-SVG-20010904/DTD/svg10.dtd">
<svg xmlns="http://www.w3.org/2000/svg" width="107pt" height="106pt" viewBox="-17 -18 107 106" preserveAspectRatio="xMidYMid meet">
  <path
    d="M 0 70 L 0 45 L 8 45 L 8 70 L 0 70 Z M 0 25 L 0 0 L 14 0 L 23.375 25 L 15.125 25 L 8 6 L 8 25 L 0 25 Z M 32 70 L 22.625 45 L 30.875 45 L 35 56 L 37 56 L 41.125 45 L 48.6774 45 L 39 70 Z M 48.625 25 L 58 0 L 72 0 L 72 25 L 64 25 L 64 8 L 56.42 25 Z M 64 70 L 64 45 L 72 45 L 72 70 Z"
    stroke="#191919" stroke-width="10" fill="#191919" />
</svg>