<svg width="100%" height="100%" xmlns="http://www.w3.org/2000/svg">
  <defs>
    <pattern id="smallGrid" width="8" height="8" patternUnits="userSpaceOnUse">
      <path d="M 8 0 L 0 0 0 8" fill="none" stroke="gray" stroke-width="1" />
    </pattern>
    <pattern id="grid" width="80" height="80" patternUnits="userSpaceOnUse">
      <rect width="80" height="80" fill="url(#smallGrid)" />
      <path d="M 80 0 L 0 0 0 80" fill="none" stroke="#3700ff" stroke-width="2" />
    </pattern>
  </defs>

  <rect width="100%" height="100%" fill="url(#grid)" />
    <g id="svgGroup" stroke-linecap="round" fill-rule="evenodd" font-size="9pt" stroke="#000" stroke-width="0.25mm"
      fill="#000" style="stroke:#000;stroke-width:0.25mm;fill:#000">
      <path
        d="M 30.8 74 L 19 74 L 0 6.3 L 9.4 3.3 L 25.2 63.9 L 40.1 11.3 L 52 11.3 L 66.8 63.9 L 82.5 3.6 L 91.3 6.3 L 72.4 74 L 60.6 74 L 45.8 21.4 L 30.8 74 Z M 160.6 69.7 L 160.6 74 L 152.2 74 L 152.2 0 L 161.2 0 L 161.2 27.4 Q 163.2 25.1 167.05 22.95 A 16.584 16.584 0 0 1 172.281 21.128 A 22.424 22.424 0 0 1 176.2 20.8 Q 182.2 20.8 187.45 23.95 A 22.329 22.329 0 0 1 194.628 30.917 A 27.464 27.464 0 0 1 195.9 33.05 Q 199.1 39 199.1 47.5 A 33.315 33.315 0 0 1 198.413 54.388 A 27.75 27.75 0 0 1 197.1 58.8 A 29.367 29.367 0 0 1 193.939 64.804 A 25.482 25.482 0 0 1 191.75 67.55 A 24.894 24.894 0 0 1 185.619 72.464 A 23.302 23.302 0 0 1 184.2 73.2 A 20.006 20.006 0 0 1 176.834 75.16 A 19.209 19.209 0 0 1 175.6 75.2 Q 171.1 75.2 167.15 73.55 A 30.274 30.274 0 0 1 163.847 71.942 Q 162.022 70.903 160.6 69.7 Z M 139.9 51.7 L 103.5 51.7 A 24.088 24.088 0 0 0 104.639 56.725 Q 105.975 60.538 108.6 63.1 Q 112.8 67.2 119.7 67.2 Q 124.2 67.2 127.8 66.25 Q 131.4 65.3 134.7 63.8 L 136.8 71.5 A 40.77 40.77 0 0 1 132.465 73.126 A 51.863 51.863 0 0 1 128.7 74.15 A 38.914 38.914 0 0 1 123.608 74.969 A 52.025 52.025 0 0 1 118.6 75.2 A 28.318 28.318 0 0 1 110.854 74.195 A 21.108 21.108 0 0 1 100.85 68.05 A 23.521 23.521 0 0 1 95.645 58.51 Q 94.3 53.845 94.3 48 A 35.359 35.359 0 0 1 95.133 40.178 A 28.84 28.84 0 0 1 97.25 34.05 A 24.642 24.642 0 0 1 102.266 26.968 A 22.887 22.887 0 0 1 105.5 24.35 A 21.048 21.048 0 0 1 115.759 20.878 A 26.205 26.205 0 0 1 117.8 20.8 Q 125.3 20.8 130.25 24.05 Q 135.2 27.3 137.7 32.8 A 28.185 28.185 0 0 1 140.126 42.664 A 33.434 33.434 0 0 1 140.2 44.9 A 75.204 75.204 0 0 1 139.909 51.597 A 69.426 69.426 0 0 1 139.9 51.7 Z M 161.2 35.4 L 161.2 63.2 A 17.99 17.99 0 0 0 164.83 65.385 A 21.802 21.802 0 0 0 166.6 66.1 A 19.462 19.462 0 0 0 172.764 67.196 A 22.039 22.039 0 0 0 173.2 67.2 Q 178.1 67.2 181.85 64.8 Q 185.6 62.4 187.75 58 Q 189.9 53.6 189.9 47.8 Q 189.9 41.8 187.75 37.5 Q 185.6 33.2 182.05 30.9 Q 178.5 28.6 174.2 28.6 A 14.741 14.741 0 0 0 168.573 29.663 A 14.054 14.054 0 0 0 166.45 30.75 Q 163 32.9 161.2 35.4 Z M 103.4 44.4 L 131.9 44.4 A 24.355 24.355 0 0 0 131.496 39.815 Q 131 37.231 129.896 35.207 A 12.422 12.422 0 0 0 128.1 32.7 A 12.488 12.488 0 0 0 121.139 28.924 A 18.395 18.395 0 0 0 117.6 28.6 A 13.58 13.58 0 0 0 112.488 29.535 A 12.524 12.524 0 0 0 108 32.65 Q 104.2 36.7 103.4 44.4 Z"
        vector-effect="non-scaling-stroke" />
    </g>
</svg>